<mxfile host="app.diagrams.net" modified="2023-11-09T05:42:45.493Z" agent="Mozilla/5.0 (Macintosh; Intel Mac OS X 10_15_7) AppleWebKit/537.36 (KHTML, like Gecko) Chrome/118.0.0.0 Safari/537.36" etag="rLxoFMsoV8wlqsQlyFSd" version="22.0.8" type="github">
  <diagram name="Page-1" id="z6v0Q-WPMg1gWnwW8YMw">
    <mxGraphModel dx="1194" dy="798" grid="1" gridSize="10" guides="1" tooltips="1" connect="1" arrows="1" fold="1" page="1" pageScale="1" pageWidth="827" pageHeight="1169" math="0" shadow="0">
      <root>
        <mxCell id="0" />
        <mxCell id="1" parent="0" />
        <mxCell id="yDry4GABB7wp7NgTJ1v5-1" value="Actor" style="shape=umlActor;verticalLabelPosition=bottom;verticalAlign=top;html=1;outlineConnect=0;" vertex="1" parent="1">
          <mxGeometry x="110" y="40" width="30" height="60" as="geometry" />
        </mxCell>
        <mxCell id="yDry4GABB7wp7NgTJ1v5-9" value="" style="edgeStyle=orthogonalEdgeStyle;rounded=0;orthogonalLoop=1;jettySize=auto;html=1;" edge="1" parent="1" source="yDry4GABB7wp7NgTJ1v5-2" target="yDry4GABB7wp7NgTJ1v5-3">
          <mxGeometry relative="1" as="geometry" />
        </mxCell>
        <mxCell id="yDry4GABB7wp7NgTJ1v5-2" value="is&lt;br&gt;Authenticated" style="rhombus;whiteSpace=wrap;html=1;fillColor=#d5e8d4;strokeColor=#82b366;" vertex="1" parent="1">
          <mxGeometry x="235" y="20" width="130" height="120" as="geometry" />
        </mxCell>
        <mxCell id="yDry4GABB7wp7NgTJ1v5-10" value="" style="edgeStyle=orthogonalEdgeStyle;rounded=0;orthogonalLoop=1;jettySize=auto;html=1;" edge="1" parent="1" source="yDry4GABB7wp7NgTJ1v5-3" target="yDry4GABB7wp7NgTJ1v5-4">
          <mxGeometry relative="1" as="geometry" />
        </mxCell>
        <mxCell id="yDry4GABB7wp7NgTJ1v5-18" value="" style="edgeStyle=orthogonalEdgeStyle;rounded=0;orthogonalLoop=1;jettySize=auto;html=1;" edge="1" parent="1" source="yDry4GABB7wp7NgTJ1v5-3" target="yDry4GABB7wp7NgTJ1v5-7">
          <mxGeometry relative="1" as="geometry" />
        </mxCell>
        <mxCell id="yDry4GABB7wp7NgTJ1v5-3" value="is&lt;br&gt;Backend&lt;br&gt;Authorized(Has Permission)" style="rhombus;whiteSpace=wrap;html=1;fillColor=#d5e8d4;strokeColor=#82b366;" vertex="1" parent="1">
          <mxGeometry x="235" y="180" width="130" height="130" as="geometry" />
        </mxCell>
        <mxCell id="yDry4GABB7wp7NgTJ1v5-12" value="" style="edgeStyle=orthogonalEdgeStyle;rounded=0;orthogonalLoop=1;jettySize=auto;html=1;" edge="1" parent="1" source="yDry4GABB7wp7NgTJ1v5-4" target="yDry4GABB7wp7NgTJ1v5-5">
          <mxGeometry relative="1" as="geometry" />
        </mxCell>
        <mxCell id="yDry4GABB7wp7NgTJ1v5-4" value="Home Page" style="rounded=1;whiteSpace=wrap;html=1;fillColor=#d5e8d4;strokeColor=#82b366;" vertex="1" parent="1">
          <mxGeometry x="240" y="330" width="120" height="60" as="geometry" />
        </mxCell>
        <mxCell id="yDry4GABB7wp7NgTJ1v5-13" value="" style="edgeStyle=orthogonalEdgeStyle;rounded=0;orthogonalLoop=1;jettySize=auto;html=1;" edge="1" parent="1" source="yDry4GABB7wp7NgTJ1v5-5" target="yDry4GABB7wp7NgTJ1v5-6">
          <mxGeometry relative="1" as="geometry" />
        </mxCell>
        <mxCell id="yDry4GABB7wp7NgTJ1v5-5" value="is&lt;br&gt;Backend token&lt;br&gt;Expired?" style="rhombus;whiteSpace=wrap;html=1;fillColor=#d5e8d4;strokeColor=#82b366;" vertex="1" parent="1">
          <mxGeometry x="230" y="430" width="140" height="130" as="geometry" />
        </mxCell>
        <mxCell id="yDry4GABB7wp7NgTJ1v5-6" value="Logout" style="rounded=1;whiteSpace=wrap;html=1;fillColor=#d5e8d4;strokeColor=#82b366;" vertex="1" parent="1">
          <mxGeometry x="240" y="605" width="120" height="60" as="geometry" />
        </mxCell>
        <mxCell id="yDry4GABB7wp7NgTJ1v5-7" value="Unauthorised&amp;nbsp; Page" style="rounded=1;whiteSpace=wrap;html=1;fillColor=#d5e8d4;strokeColor=#82b366;" vertex="1" parent="1">
          <mxGeometry x="404" y="215" width="120" height="60" as="geometry" />
        </mxCell>
        <mxCell id="yDry4GABB7wp7NgTJ1v5-8" value="Register/Sign In&lt;br&gt;Page" style="rounded=1;whiteSpace=wrap;html=1;fillColor=#dae8fc;strokeColor=#6c8ebf;" vertex="1" parent="1">
          <mxGeometry x="590" y="160" width="120" height="60" as="geometry" />
        </mxCell>
        <mxCell id="yDry4GABB7wp7NgTJ1v5-14" value="" style="endArrow=classic;html=1;rounded=0;exitX=1;exitY=0.25;exitDx=0;exitDy=0;entryX=0.5;entryY=1;entryDx=0;entryDy=0;" edge="1" parent="1" source="yDry4GABB7wp7NgTJ1v5-6" target="yDry4GABB7wp7NgTJ1v5-8">
          <mxGeometry width="50" height="50" relative="1" as="geometry">
            <mxPoint x="380" y="410" as="sourcePoint" />
            <mxPoint x="670" y="635" as="targetPoint" />
            <Array as="points">
              <mxPoint x="650" y="620" />
            </Array>
          </mxGeometry>
        </mxCell>
        <mxCell id="yDry4GABB7wp7NgTJ1v5-15" value="" style="endArrow=classic;html=1;rounded=0;exitX=0.5;exitY=0;exitDx=0;exitDy=0;entryX=1;entryY=0.5;entryDx=0;entryDy=0;" edge="1" parent="1" source="yDry4GABB7wp7NgTJ1v5-8" target="yDry4GABB7wp7NgTJ1v5-2">
          <mxGeometry width="50" height="50" relative="1" as="geometry">
            <mxPoint x="640" y="80" as="sourcePoint" />
            <mxPoint x="370" y="80" as="targetPoint" />
            <Array as="points">
              <mxPoint x="650" y="80" />
            </Array>
          </mxGeometry>
        </mxCell>
        <mxCell id="yDry4GABB7wp7NgTJ1v5-16" value="Redirect" style="text;html=1;align=center;verticalAlign=middle;resizable=0;points=[];autosize=1;strokeColor=none;fillColor=none;" vertex="1" parent="1">
          <mxGeometry x="485" y="58" width="70" height="30" as="geometry" />
        </mxCell>
        <mxCell id="yDry4GABB7wp7NgTJ1v5-17" value="Redirect" style="text;html=1;align=center;verticalAlign=middle;resizable=0;points=[];autosize=1;strokeColor=none;fillColor=none;" vertex="1" parent="1">
          <mxGeometry x="575" y="508" width="70" height="30" as="geometry" />
        </mxCell>
        <mxCell id="yDry4GABB7wp7NgTJ1v5-19" value="" style="endArrow=classic;html=1;rounded=0;exitX=1;exitY=0.538;exitDx=0;exitDy=0;exitPerimeter=0;entryX=1;entryY=0.5;entryDx=0;entryDy=0;" edge="1" parent="1" source="yDry4GABB7wp7NgTJ1v5-5" target="yDry4GABB7wp7NgTJ1v5-4">
          <mxGeometry width="50" height="50" relative="1" as="geometry">
            <mxPoint x="380" y="410" as="sourcePoint" />
            <mxPoint x="430" y="360" as="targetPoint" />
            <Array as="points">
              <mxPoint x="470" y="500" />
              <mxPoint x="470" y="360" />
            </Array>
          </mxGeometry>
        </mxCell>
        <mxCell id="yDry4GABB7wp7NgTJ1v5-20" value="No" style="text;html=1;align=center;verticalAlign=middle;resizable=0;points=[];autosize=1;strokeColor=none;fillColor=none;" vertex="1" parent="1">
          <mxGeometry x="440" y="428" width="40" height="30" as="geometry" />
        </mxCell>
        <mxCell id="yDry4GABB7wp7NgTJ1v5-21" value="Backend Request" style="text;html=1;align=center;verticalAlign=middle;resizable=0;points=[];autosize=1;strokeColor=none;fillColor=none;" vertex="1" parent="1">
          <mxGeometry x="290" y="398" width="120" height="30" as="geometry" />
        </mxCell>
        <mxCell id="yDry4GABB7wp7NgTJ1v5-22" value="Yes" style="text;html=1;align=center;verticalAlign=middle;resizable=0;points=[];autosize=1;strokeColor=none;fillColor=none;" vertex="1" parent="1">
          <mxGeometry x="300" y="308" width="40" height="30" as="geometry" />
        </mxCell>
        <mxCell id="yDry4GABB7wp7NgTJ1v5-23" value="Yes" style="text;html=1;align=center;verticalAlign=middle;resizable=0;points=[];autosize=1;strokeColor=none;fillColor=none;" vertex="1" parent="1">
          <mxGeometry x="290" y="148" width="40" height="30" as="geometry" />
        </mxCell>
        <mxCell id="yDry4GABB7wp7NgTJ1v5-24" value="Yes" style="text;html=1;align=center;verticalAlign=middle;resizable=0;points=[];autosize=1;strokeColor=none;fillColor=none;" vertex="1" parent="1">
          <mxGeometry x="300" y="568" width="40" height="30" as="geometry" />
        </mxCell>
        <mxCell id="yDry4GABB7wp7NgTJ1v5-25" value="" style="endArrow=classic;html=1;rounded=0;entryX=0;entryY=0.5;entryDx=0;entryDy=0;" edge="1" parent="1" target="yDry4GABB7wp7NgTJ1v5-2">
          <mxGeometry width="50" height="50" relative="1" as="geometry">
            <mxPoint x="130" y="80" as="sourcePoint" />
            <mxPoint x="430" y="360" as="targetPoint" />
          </mxGeometry>
        </mxCell>
        <mxCell id="yDry4GABB7wp7NgTJ1v5-26" value="&amp;lt;Outlet&amp;gt;" style="rounded=1;whiteSpace=wrap;html=1;fillColor=#b0e3e6;strokeColor=#0e8088;" vertex="1" parent="1">
          <mxGeometry x="290" y="780" width="120" height="60" as="geometry" />
        </mxCell>
        <mxCell id="yDry4GABB7wp7NgTJ1v5-34" value="" style="edgeStyle=orthogonalEdgeStyle;rounded=0;orthogonalLoop=1;jettySize=auto;html=1;" edge="1" parent="1" source="yDry4GABB7wp7NgTJ1v5-27" target="yDry4GABB7wp7NgTJ1v5-30">
          <mxGeometry relative="1" as="geometry" />
        </mxCell>
        <mxCell id="yDry4GABB7wp7NgTJ1v5-27" value="Editor.js&lt;br&gt;&amp;lt;Editor&amp;gt;" style="rounded=1;whiteSpace=wrap;html=1;fillColor=#b0e3e6;strokeColor=#0e8088;" vertex="1" parent="1">
          <mxGeometry x="440" y="880" width="120" height="60" as="geometry" />
        </mxCell>
        <mxCell id="yDry4GABB7wp7NgTJ1v5-29" value="Home.js&lt;br&gt;&amp;lt;Home&amp;gt;" style="rounded=1;whiteSpace=wrap;html=1;fillColor=#b0e3e6;strokeColor=#0e8088;" vertex="1" parent="1">
          <mxGeometry x="115" y="880" width="120" height="60" as="geometry" />
        </mxCell>
        <mxCell id="yDry4GABB7wp7NgTJ1v5-30" value="Posts.js&lt;br&gt;&amp;lt;Posts&amp;gt;" style="rounded=1;whiteSpace=wrap;html=1;fillColor=#b0e3e6;strokeColor=#0e8088;" vertex="1" parent="1">
          <mxGeometry x="440" y="990" width="120" height="60" as="geometry" />
        </mxCell>
        <mxCell id="yDry4GABB7wp7NgTJ1v5-32" value="" style="endArrow=none;dashed=1;html=1;rounded=0;" edge="1" parent="1">
          <mxGeometry width="50" height="50" relative="1" as="geometry">
            <mxPoint y="720" as="sourcePoint" />
            <mxPoint x="820" y="720" as="targetPoint" />
          </mxGeometry>
        </mxCell>
        <mxCell id="yDry4GABB7wp7NgTJ1v5-33" value="" style="endArrow=classic;startArrow=classic;html=1;rounded=0;entryX=-0.008;entryY=0.117;entryDx=0;entryDy=0;entryPerimeter=0;" edge="1" parent="1" source="yDry4GABB7wp7NgTJ1v5-29" target="yDry4GABB7wp7NgTJ1v5-27">
          <mxGeometry width="50" height="50" relative="1" as="geometry">
            <mxPoint x="440" y="830" as="sourcePoint" />
            <mxPoint x="490" y="780" as="targetPoint" />
            <Array as="points">
              <mxPoint x="340" y="840" />
            </Array>
          </mxGeometry>
        </mxCell>
        <mxCell id="yDry4GABB7wp7NgTJ1v5-35" value="User,&amp;nbsp; Manager, Admin" style="text;html=1;align=center;verticalAlign=middle;resizable=0;points=[];autosize=1;strokeColor=none;fillColor=none;rotation=-30;" vertex="1" parent="1">
          <mxGeometry x="70" y="840" width="140" height="30" as="geometry" />
        </mxCell>
        <mxCell id="yDry4GABB7wp7NgTJ1v5-36" value="Manager, Admin" style="text;html=1;align=center;verticalAlign=middle;resizable=0;points=[];autosize=1;strokeColor=none;fillColor=none;rotation=-30;" vertex="1" parent="1">
          <mxGeometry x="445" y="830" width="110" height="30" as="geometry" />
        </mxCell>
        <mxCell id="yDry4GABB7wp7NgTJ1v5-39" value="Delete for admins only" style="text;html=1;align=center;verticalAlign=middle;resizable=0;points=[];autosize=1;strokeColor=none;fillColor=none;rotation=-30;" vertex="1" parent="1">
          <mxGeometry x="550" y="990" width="140" height="30" as="geometry" />
        </mxCell>
        <mxCell id="yDry4GABB7wp7NgTJ1v5-40" value="Landing" style="text;html=1;align=center;verticalAlign=middle;resizable=0;points=[];autosize=1;strokeColor=none;fillColor=none;" vertex="1" parent="1">
          <mxGeometry x="145" y="58" width="70" height="30" as="geometry" />
        </mxCell>
      </root>
    </mxGraphModel>
  </diagram>
</mxfile>
